<svg width="25" height="25" viewBox="0 0 25 25" fill="none" xmlns="http://www.w3.org/2000/svg">
<rect y="6.10352e-05" width="25" height="25" rx="5" fill="#282A33"/>
<path d="M5.22189 12.0885C6.72488 11.2606 8.40263 10.5696 9.97024 9.87511C12.6671 8.73757 15.3747 7.61975 18.1097 6.57907C18.6418 6.40175 19.5979 6.22834 19.6916 7.01691C19.6403 8.13312 19.4291 9.2428 19.2843 10.3525C18.9166 12.7928 18.4917 15.2247 18.0773 17.6569C17.9345 18.4671 16.9196 18.8865 16.2702 18.3681C14.7096 17.3139 13.137 16.27 11.5962 15.1914C11.0915 14.6785 11.5595 13.9421 12.0103 13.5759C13.2957 12.3091 14.6589 11.2329 15.8771 9.90066C16.2057 9.10711 15.2348 9.77589 14.9145 9.9808C13.1548 11.1934 11.4382 12.4801 9.58287 13.5459C8.63519 14.0676 7.53065 13.6217 6.5834 13.3306C5.73407 12.979 4.48949 12.6247 5.22181 12.0885L5.22189 12.0885Z" fill="white"/>
</svg>
