<svg width="25" height="25" viewBox="0 0 25 25" fill="none" xmlns="http://www.w3.org/2000/svg">
<rect y="6.10352e-05" width="25" height="25" rx="5" fill="#282A33"/>
<path fill-rule="evenodd" clip-rule="evenodd" d="M20.1184 8.53229C20.2386 8.15148 20.1184 7.8745 19.586 7.8745H17.8173C17.3708 7.8745 17.1648 8.11683 17.0446 8.37653C17.0446 8.37653 16.1344 10.5923 14.8637 12.029C14.4515 12.4445 14.2627 12.583 14.0394 12.583C13.9192 12.583 13.7647 12.4445 13.7647 12.0637V8.51497C13.7647 8.06491 13.6273 7.85718 13.2495 7.85718H10.4676C10.1929 7.85718 10.0212 8.06491 10.0212 8.27264C10.0212 8.70543 10.6565 8.80927 10.7252 10.021V12.6522C10.7252 13.2235 10.6222 13.3273 10.3989 13.3273C9.79791 13.3273 8.33829 11.0943 7.46251 8.54962C7.29076 8.04759 7.11906 7.85718 6.6726 7.85718H4.88666C4.37151 7.85718 4.28564 8.09956 4.28564 8.35921C4.28564 8.82659 4.88666 11.1808 7.08469 14.2967C8.54436 16.4259 10.6222 17.5684 12.494 17.5684C13.6273 17.5684 13.7647 17.3088 13.7647 16.876V15.2662C13.7647 14.7468 13.8677 14.6603 14.2283 14.6603C14.4859 14.6603 14.9495 14.7987 15.997 15.8201C17.1991 17.0318 17.4051 17.5857 18.0749 17.5857H19.8436C20.3588 17.5857 20.5992 17.3261 20.4618 16.8241C20.3073 16.3221 19.7234 15.5951 18.9678 14.7295C18.5557 14.2448 17.9375 13.7082 17.7486 13.4485C17.491 13.1023 17.5597 12.9638 17.7486 12.6522C17.7315 12.6522 19.8951 9.57095 20.1184 8.53229Z" fill="white"/>
</svg>
